<?xml version="1.0" encoding="utf-8"?>
<!-- Generator: Adobe Illustrator 22.0.2, SVG Export Plug-In . SVG Version: 6.00 Build 0)  -->
<svg version="1.1" id="Layer_1" xmlns="http://www.w3.org/2000/svg" xmlns:xlink="http://www.w3.org/1999/xlink" x="0px" y="0px"
	 viewBox="0 0 506 377" style="enable-background:new 0 0 506 377;" xml:space="preserve">
<style type="text/css">
	.st0{fill:#494949;}
	.st1{fill:#ADADAD;}
</style>
<g>
	<path class="st0" d="M314.5,44c2.2,7.5,4.3,15.3,3.5,23.3c-1.1,15.5-8.6,29.5-15.4,43.2c11-9.5,22.5-18.8,31.3-30.6
		c6.2-8.1,8.9-18.1,12.2-27.5c-0.1,9.2-0.1,18.8-4.2,27.3c-9.1,21.3-27.8,35.9-40.6,54.7c-3.8,6-7.9,13.2-5.8,20.5
		c5.2,4.6,11.6,7.8,16.9,12.4c23.8,19.9,34.9,53.1,28.6,83.4c-7.2,39.7-45.6,71-86.1,69.3c-35.9,0.9-70-24.1-81.2-58
		c24.5-1.5,49.3,1.9,73.5-3.4c11.4-2.3,22.6-5.1,33.8-8c0-4.4,0.1-8.8,0.1-13.2c-13.7,1.2-26.7,5.8-40.1,8.7
		c-9.2,2.4-19.4-3.1-22.6-11.9c-2.1-6.9,3.1-13,7-18.1c13.4-15.7,26.1-32,40.1-47.2c6.1-5.8,4.4-14.7,4.9-22.2
		c0.1-8.8,4.6-16.7,8.8-24.1c9.9-16.8,23.9-31.1,31.4-49.3C314.4,64,314.1,53.8,314.5,44z"/>
</g>
<g>
	<path class="st1" d="M181.2,188.3c13.1-22,36.5-37.4,61.8-41c9.1-1.2,18.3-0.7,27.4-0.6c-0.5,7.5,1.2,16.4-4.9,22.2
		c-14,15.2-26.7,31.5-40.1,47.2c-3.9,5.1-9.1,11.2-7,18.1c3.2,8.8,13.4,14.4,22.6,11.9c13.4-2.8,26.4-7.5,40.1-8.7
		c0,4.4,0,8.8-0.1,13.2c-11.2,2.8-22.5,5.7-33.8,8c-24.2,5.2-49,1.8-73.5,3.4C165.5,237.8,167.9,210.2,181.2,188.3z"/>
</g>
</svg>
