<?xml version="1.0" encoding="utf-8"?>
<!-- Generator: Adobe Illustrator 22.0.2, SVG Export Plug-In . SVG Version: 6.00 Build 0)  -->
<svg version="1.1" id="Layer_1" xmlns="http://www.w3.org/2000/svg" xmlns:xlink="http://www.w3.org/1999/xlink" x="0px" y="0px"
	 viewBox="0 0 500 220" style="enable-background:new 0 0 500 220;" xml:space="preserve">
<style type="text/css">
	.st0{fill:#202735;}
	.st1{fill:#5BC499;}
</style>
<g>
	<path class="st0" d="M278.8,26.8c1,3.6,2.1,7.4,1.7,11.2c-0.5,7.5-4.1,14.2-7.4,20.8c5.3-4.6,10.9-9.1,15.1-14.8
		c3-3.9,4.3-8.7,5.9-13.3c0,4.4,0,9.1-2,13.2c-4.4,10.3-13.4,17.3-19.6,26.4c-1.8,2.9-3.8,6.4-2.8,9.9c2.5,2.2,5.6,3.8,8.2,6
		c11.5,9.6,16.9,25.6,13.8,40.2c-3.5,19.2-22,34.3-41.5,33.4c-17.3,0.4-33.8-11.7-39.2-28c11.8-0.7,23.8,0.9,35.5-1.6
		c5.5-1.1,10.9-2.5,16.3-3.8c0-2.1,0-4.2,0-6.4c-6.6,0.6-12.9,2.8-19.4,4.2c-4.4,1.2-9.3-1.5-10.9-5.8c-1-3.3,1.5-6.3,3.4-8.7
		c6.5-7.6,12.6-15.4,19.3-22.8c2.9-2.8,2.1-7.1,2.4-10.7c0-4.2,2.2-8.1,4.2-11.6c4.8-8.1,11.5-15,15.1-23.8
		C278.7,36.5,278.6,31.5,278.8,26.8z"/>
</g>
<g>
	<path class="st1" d="M214.4,96.4c6.3-10.6,17.6-18,29.8-19.8c4.4-0.6,8.8-0.3,13.2-0.3c-0.2,3.6,0.6,7.9-2.4,10.7
		c-6.8,7.3-12.9,15.2-19.3,22.8c-1.9,2.5-4.4,5.4-3.4,8.7c1.5,4.3,6.5,6.9,10.9,5.8c6.5-1.4,12.7-3.6,19.4-4.2c0,2.1,0,4.2,0,6.4
		c-5.4,1.4-10.8,2.8-16.3,3.8c-11.7,2.5-23.7,0.9-35.5,1.6C206.9,120.3,208,106.9,214.4,96.4z"/>
</g>
</svg>
